<?xml version="1.0" standalone="no"?>
<!DOCTYPE svg PUBLIC "-//W3C//DTD SVG 20010904//EN"
 "http://www.w3.org/TR/2001/REC-SVG-20010904/DTD/svg10.dtd">
<svg version="1.0" xmlns="http://www.w3.org/2000/svg"
 width="736.000000pt" height="736.000000pt" viewBox="0 0 736.000000 736.000000"
 preserveAspectRatio="xMidYMid meet">
<metadata>
Created by potrace 1.14, written by Peter Selinger 2001-2017
</metadata>
<g transform="translate(0.000000,736.000000) scale(0.100000,-0.100000)"
fill="#000000" stroke="none">
<path d="M3455 7349 c-22 -4 -58 -11 -80 -14 -21 -4 -47 -11 -56 -15 -9 -5
-18 -7 -21 -5 -4 4 -43 -9 -143 -50 -11 -5 -22 -9 -25 -10 -17 -4 -118 -60
-132 -73 -10 -8 -18 -11 -18 -6 0 5 -4 4 -8 -1 -4 -6 -23 -22 -42 -35 -73 -51
-202 -174 -256 -245 -31 -40 -124 -190 -124 -200 0 -2 -11 -28 -24 -57 -45
-99 -81 -236 -92 -353 -4 -39 -7 -71 -8 -72 -1 -1 -89 -3 -196 -3 -182 -2
-197 -3 -239 -25 -53 -27 -86 -61 -111 -117 -20 -44 -18 33 -19 -1193 l-1
-580 -683 0 c-565 0 -687 -2 -700 -14 -10 -7 -17 -10 -17 -7 0 11 -63 -36 -85
-63 -51 -63 -65 -164 -33 -241 21 -50 85 -107 138 -124 34 -11 108 -15 313
-15 147 0 272 -3 276 -6 5 -2 7 -17 5 -32 -1 -16 -5 -89 -9 -163 -3 -74 -7
-173 -10 -220 -12 -233 -16 -313 -20 -405 -3 -55 -7 -143 -10 -195 -3 -52 -7
-147 -10 -210 -3 -63 -8 -153 -11 -200 -3 -47 -7 -130 -9 -185 -2 -55 -6 -138
-9 -185 -3 -47 -8 -148 -12 -225 -7 -171 -11 -239 -18 -375 -3 -57 -8 -159
-11 -225 -3 -66 -7 -151 -10 -190 -18 -311 -22 -486 -11 -540 45 -212 194
-379 398 -446 l73 -24 2210 0 c1216 0 2226 3 2245 7 114 22 243 93 309 172 9
10 26 29 39 42 12 13 22 26 22 30 0 3 9 19 21 35 11 16 32 61 47 101 24 67 26
86 26 218 -1 131 -9 347 -19 490 -2 30 -7 120 -10 200 -3 80 -8 172 -10 205
-2 33 -6 121 -10 195 -3 74 -8 167 -10 205 -2 39 -7 131 -10 205 -13 278 -20
415 -30 590 -3 47 -7 137 -10 200 -5 116 -11 244 -20 400 -2 47 -7 141 -10
210 -3 69 -8 169 -10 223 -4 82 -3 97 10 97 8 1 132 1 275 1 144 1 277 5 297
11 87 24 152 105 161 200 5 58 -12 138 -30 138 -4 0 -8 5 -8 11 0 18 -55 67
-97 85 -34 16 -100 18 -710 18 -369 1 -675 5 -680 10 -4 4 -8 393 -9 864 0
843 -1 858 -21 902 -24 53 -47 79 -99 111 -40 25 -73 28 -323 32 l-125 2 -2
35 c-11 152 -53 309 -118 438 -44 89 -57 112 -78 136 -10 11 -18 25 -18 32 0
7 -3 14 -7 16 -5 2 -26 25 -47 52 -127 158 -309 288 -513 366 -29 11 -63 22
-75 25 -13 2 -52 12 -88 20 -73 18 -341 27 -405 14z m285 -464 c52 -10 52 -10
95 -24 43 -14 119 -49 175 -81 38 -22 180 -150 180 -163 0 -4 9 -17 20 -29 11
-12 20 -28 20 -35 0 -7 4 -13 8 -13 21 0 87 -190 98 -277 l6 -53 -724 3 c-716
2 -723 2 -721 22 11 119 55 241 120 337 50 74 96 122 188 196 15 11 110 66
112 64 2 0 17 5 35 13 40 16 142 42 183 47 45 5 165 1 205 -7z m1168 -1864
l-3 -725 -1278 -1 c-703 0 -1283 2 -1290 5 -9 4 -12 169 -12 720 0 393 3 717
7 721 4 3 586 5 1293 5 l1285 0 -2 -725z m788 -1236 c1 -22 5 -101 9 -175 4
-74 9 -166 10 -205 2 -38 6 -124 9 -190 4 -66 9 -156 11 -200 2 -44 7 -134 10
-200 4 -66 8 -160 11 -210 9 -206 15 -333 30 -605 2 -47 6 -134 9 -195 3 -60
7 -150 10 -200 8 -137 18 -353 30 -605 4 -87 16 -312 19 -377 4 -70 -21 -125
-65 -143 -28 -12 -368 -14 -2164 -15 -1171 0 -2140 1 -2153 3 -12 3 -38 19
-57 36 l-34 31 4 135 c4 123 9 229 20 425 2 39 6 129 9 200 4 72 9 173 12 225
3 52 7 136 9 185 3 50 7 137 10 195 2 58 7 148 9 200 8 156 16 320 21 405 5
77 11 208 20 405 3 52 7 138 10 190 2 52 7 142 9 200 5 95 12 230 21 395 1 33
3 77 4 98 l1 37 2077 -2 2077 -3 2 -40z"/>
<path d="M2805 3142 c-69 -14 -136 -69 -166 -137 -16 -37 -18 -76 -19 -400 -1
-198 -1 -367 -1 -375 0 -8 1 -33 0 -55 0 -22 0 -58 0 -80 1 -22 1 -58 0 -80 0
-22 0 -58 0 -80 1 -51 0 -109 -2 -163 -1 -23 1 -42 6 -42 4 0 7 -9 7 -21 0
-37 49 -107 98 -137 26 -16 146 -78 267 -138 121 -60 223 -113 226 -117 3 -5
8 -8 10 -6 6 4 223 -104 231 -116 4 -5 8 -7 8 -4 0 3 21 -4 48 -17 36 -17 61
-22 107 -20 56 2 88 16 475 210 450 225 477 243 503 332 10 34 12 185 12 661
-1 570 -3 621 -19 651 -26 50 -66 91 -111 115 -40 22 -44 22 -850 22 -445 1
-819 -1 -830 -3z m1340 -847 l0 -388 -82 -42 c-46 -23 -83 -40 -83 -37 0 3 -8
-1 -17 -9 -20 -17 -131 -71 -136 -67 -2 2 -12 -3 -21 -11 -9 -8 -56 -33 -104
-56 l-87 -42 -260 130 c-143 72 -263 134 -266 139 -4 6 -5 773 0 773 0 0 238
0 528 -1 l528 -1 0 -388z"/>
</g>
</svg>
